<?xml version="1.0" encoding="iso-8859-1"?>
<!-- Generator: Adobe Illustrator 18.1.1, SVG Export Plug-In . SVG Version: 6.00 Build 0)  -->
<svg xmlns="http://www.w3.org/2000/svg" xmlns:xlink="http://www.w3.org/1999/xlink" version="1.1" id="Capa_1" x="0px" y="0px" viewBox="0 0 19.37 19.37" style="enable-background:new 0 0 19.37 19.37;" xml:space="preserve" width="512px" height="512px">
<g>
	<g>
		<path d="M18.881,3.617c0.273-0.019,0.486-0.246,0.486-0.52V1.476c0-0.288-0.233-0.521-0.521-0.521h-1.895    c-0.288,0-0.521,0.233-0.521,0.521c0,0.521-0.5,0.944-1.114,0.944c-0.613,0-1.113-0.423-1.113-0.944    c0-0.288-0.233-0.521-0.521-0.521h-2.475c-0.255,0-0.472,0.185-0.514,0.437c-0.077,0.464-0.548,0.814-1.098,0.814    c-0.549,0-1.021-0.35-1.098-0.814C8.456,1.14,8.238,0.955,7.983,0.955H5.468c-0.255,0-0.473,0.185-0.514,0.437    C4.877,1.856,4.405,2.206,3.856,2.206s-1.021-0.35-1.097-0.814C2.718,1.139,2.5,0.955,2.245,0.955H0.521    C0.234,0.955,0,1.188,0,1.476v1.621C0,3.24,0.059,3.376,0.162,3.474c0.104,0.099,0.245,0.152,0.386,0.143    c0.012,0,0.081-0.008,0.092-0.009c0.614,0,1.114,0.423,1.114,0.944c0,0.519-0.497,0.941-1.117,0.941c-0.001,0-0.003,0-0.004,0    c-0.009,0-0.063-0.007-0.072-0.008c-0.142-0.009-0.288,0.04-0.394,0.137C0.061,5.722,0,5.86,0,6.005v2.216    c0,0.273,0.212,0.501,0.486,0.52c0.578,0.039,1.03,0.448,1.03,0.935c0,0.485-0.452,0.896-1.029,0.933    C0.213,10.628,0,10.854,0,11.13v2.234c0,0.274,0.212,0.501,0.486,0.52c0.578,0.038,1.03,0.448,1.03,0.934    s-0.452,0.897-1.029,0.935C0.213,15.771,0,15.998,0,16.273v1.622c0,0.288,0.233,0.521,0.521,0.521h2.383c0.003,0,0.007,0,0.01,0    c0.288,0,0.521-0.232,0.521-0.521c0-0.041-0.005-0.082-0.014-0.12c0.04-0.491,0.523-0.88,1.112-0.88    c0.605,0,1.099,0.411,1.114,0.92c-0.002,0.023-0.005,0.052-0.005,0.066c-0.004,0.141,0.05,0.276,0.147,0.377    s0.232,0.157,0.373,0.157h2.474c0.264,0,0.485-0.196,0.517-0.458c0.059-0.483,0.532-0.849,1.101-0.849    c0.568,0,1.041,0.365,1.1,0.849c0.031,0.262,0.253,0.458,0.516,0.458h2.507c0.264,0,0.485-0.196,0.517-0.458    c0.059-0.483,0.531-0.849,1.101-0.849c0.568,0,1.041,0.365,1.101,0.849c0.032,0.262,0.253,0.458,0.518,0.458h1.235    c0.288,0,0.521-0.232,0.521-0.521v-1.622c0-0.145-0.061-0.283-0.167-0.382s-0.248-0.146-0.394-0.138    c-0.009,0.001-0.07,0.01-0.079,0.01c-0.614,0-1.114-0.423-1.114-0.944c0-0.518,0.498-0.941,1.117-0.941c0,0,0.002,0,0.003,0    c0.012,0.002,0.074,0.008,0.086,0.009c0.156,0.007,0.282-0.045,0.386-0.144s0.162-0.234,0.162-0.377v-2.216    c0-0.275-0.213-0.502-0.487-0.521c-0.577-0.038-1.028-0.448-1.028-0.934s0.451-0.896,1.029-0.935    c0.273-0.018,0.486-0.246,0.486-0.52V6.005c0-0.275-0.213-0.502-0.487-0.52c-0.577-0.038-1.028-0.448-1.028-0.934    C17.852,4.065,18.303,3.655,18.881,3.617z M16.372,15.591H3.062V3.777h13.31C16.372,3.777,16.372,15.591,16.372,15.591z" fill="#ff00dd"/>
		<path d="M7.908,9.684l-1.5,1.5c-0.208,0.208-0.208,0.547,0,0.754l0.99,0.991    c0.209,0.209,0.547,0.209,0.755,0l1.5-1.499l1.5,1.499c0.208,0.209,0.546,0.208,0.755,0l0.99-0.991    c0.209-0.207,0.208-0.546,0-0.754l-1.5-1.5l1.5-1.5c0.209-0.209,0.209-0.546,0-0.755l-0.99-0.99c-0.209-0.208-0.546-0.208-0.755,0    l-1.5,1.5l-1.5-1.5c-0.208-0.208-0.546-0.208-0.755,0l-0.99,0.99C6.2,7.637,6.2,7.974,6.408,8.184L7.908,9.684z" fill="#ff00dd"/>
	</g>
</g>
<g>
</g>
<g>
</g>
<g>
</g>
<g>
</g>
<g>
</g>
<g>
</g>
<g>
</g>
<g>
</g>
<g>
</g>
<g>
</g>
<g>
</g>
<g>
</g>
<g>
</g>
<g>
</g>
<g>
</g>
</svg>
