<svg xmlns="http://www.w3.org/2000/svg" viewBox="0 0 19.37 19.37" width="512" height="512"><g fill="#f0d"><path d="M18.881 3.617a.522.522 0 0 0 .486-.52V1.476a.52.52 0 0 0-.521-.521h-1.895a.52.52 0 0 0-.521.521c0 .521-.5.944-1.114.944-.613 0-1.113-.423-1.113-.944a.52.52 0 0 0-.521-.521h-2.475a.522.522 0 0 0-.514.437c-.077.464-.548.814-1.098.814-.549 0-1.021-.35-1.098-.814a.52.52 0 0 0-.514-.437H5.468a.52.52 0 0 0-.514.437c-.077.464-.549.814-1.098.814s-1.021-.35-1.097-.814a.52.52 0 0 0-.514-.437H.521A.521.521 0 0 0 0 1.476v1.621a.52.52 0 0 0 .548.52c.012 0 .081-.008.092-.009.614 0 1.114.423 1.114.944 0 .519-.497.941-1.117.941H.633l-.072-.008a.54.54 0 0 0-.394.137.527.527 0 0 0-.167.383v2.216c0 .273.212.501.486.52.578.039 1.03.448 1.03.935 0 .485-.452.896-1.029.933A.522.522 0 0 0 0 11.13v2.234c0 .274.212.501.486.52.578.038 1.03.448 1.03.934s-.452.897-1.029.935a.52.52 0 0 0-.487.52v1.622a.52.52 0 0 0 .521.521h2.393a.52.52 0 0 0 .507-.641c.04-.491.523-.88 1.112-.88.605 0 1.099.411 1.114.92-.002.023-.005.052-.005.066a.523.523 0 0 0 .52.534h2.474a.52.52 0 0 0 .517-.458c.059-.483.532-.849 1.101-.849.568 0 1.041.365 1.1.849a.519.519 0 0 0 .516.458h2.507a.52.52 0 0 0 .517-.458c.059-.483.531-.849 1.101-.849.568 0 1.041.365 1.101.849a.52.52 0 0 0 .518.458h1.235a.52.52 0 0 0 .521-.521v-1.622a.523.523 0 0 0-.561-.52c-.009.001-.07.01-.079.01-.614 0-1.114-.423-1.114-.944 0-.518.498-.941 1.117-.941h.003l.086.009c.156.007.282-.045.386-.144s.162-.234.162-.377v-2.216a.522.522 0 0 0-.487-.521c-.577-.038-1.028-.448-1.028-.934s.451-.896 1.029-.935a.521.521 0 0 0 .486-.52V6.005a.52.52 0 0 0-.487-.52c-.577-.038-1.028-.448-1.028-.934-.003-.486.448-.896 1.026-.934zm-2.509 11.974H3.062V3.777h13.31v11.814z"/><path d="M7.908 9.684l-1.5 1.5a.534.534 0 0 0 0 .754l.99.991a.533.533 0 0 0 .755 0l1.5-1.499 1.5 1.499a.534.534 0 0 0 .755 0l.99-.991a.533.533 0 0 0 0-.754l-1.5-1.5 1.5-1.5a.533.533 0 0 0 0-.755l-.99-.99a.535.535 0 0 0-.755 0l-1.5 1.5-1.5-1.5a.535.535 0 0 0-.755 0l-.99.99a.535.535 0 0 0 0 .755l1.5 1.5z"/></g></svg>