<?xml version="1.0" encoding="utf-8"?>
<!-- Generator: Adobe Illustrator 21.1.0, SVG Export Plug-In . SVG Version: 6.00 Build 0)  -->
<svg version="1.1" id="Capa_1" xmlns="http://www.w3.org/2000/svg" xmlns:xlink="http://www.w3.org/1999/xlink" x="0px" y="0px"
	 viewBox="0 0 512 512" style="enable-background:new 0 0 512 512;" xml:space="preserve">
<style type="text/css">
	.st0{fill:#666666;}
</style>
<rect x="177" y="180.2" class="st0" width="130" height="35"/>
<rect x="177" y="240.4" class="st0" width="130" height="35"/>
<rect x="177" y="300.6" class="st0" width="130" height="35"/>
<rect x="177" y="360.8" class="st0" width="130" height="35"/>
<rect x="177" y="421" class="st0" width="130" height="35"/>
<rect x="327" y="180.2" class="st0" width="130" height="35"/>
<rect x="327" y="240.4" class="st0" width="130" height="35"/>
<rect x="327" y="300.6" class="st0" width="130" height="35"/>
<rect x="327" y="360.8" class="st0" width="130" height="35"/>
<rect x="327" y="421" class="st0" width="130" height="35"/>
<rect class="st0" width="30" height="512"/>
<rect x="482" class="st0" width="30" height="512"/>
<rect class="st0" width="512" height="30"/>
<rect y="482" class="st0" width="512" height="30"/>
<rect x="55" y="55" class="st0" width="100" height="401"/>
<rect x="177" y="55" class="st0" width="280" height="100"/>
</svg>
